<?xml version="1.0" encoding="UTF-8"?>
<svg id="Layer_1" data-name="Layer 1" xmlns="http://www.w3.org/2000/svg" viewBox="0 0 864 864">
  <defs>
    <style>
      .cls-1 {
        letter-spacing: -.03em;
      }

      .cls-2 {
        fill: #fff;
      }

      .cls-3 {
        letter-spacing: 0em;
      }

      .cls-4 {
        letter-spacing: 0em;
      }

      .cls-5, .cls-6 {
        fill: #fec40e;
      }

      .cls-7 {
        letter-spacing: 0em;
      }

      .cls-6 {
        font-family: Raleway-Bold, Raleway;
        font-size: 80.87px;
        font-weight: 700;
      }
    </style>
  </defs>
  <g>
    <circle class="cls-5" cx="432" cy="386.7" r="207.84"/>
    <path class="cls-2" d="m398.55,356.26c4.57,11.48,1.2,20.41-4.28,22.99-4.93,2.31-10.53-.94-14.64-8.48-6.76-12.41-7.76-25.55-3-37.71.01-.02.05-.05.08-.04,10.05,4.83,17.7,12.86,21.83,23.24Zm85.81,14.51c-4.11,7.54-9.72,10.8-14.64,8.48-5.48-2.58-8.84-11.51-4.28-22.99,4.13-10.39,11.78-18.41,21.83-23.24.04-.01.07.01.08.04,4.77,12.16,3.77,25.3-3,37.71Zm46.78,111.09v-35.44s.03-.04.05-.06c21.18-7.34,36.88-22.63,43.47-42.54,7.07-21.39,2.89-45.02-11.18-63.27-14.23-18.46-38.19-27.8-62.53-24.4-2.59.37-5.13.88-7.59,1.52l-.06-.02c-12.84-19.71-36.6-32.31-61.3-32.31s-48.46,12.6-61.3,32.31l-.06.02c-2.46-.64-5-1.14-7.59-1.52-24.35-3.41-48.3,5.94-62.53,24.4-14.07,18.23-18.25,41.88-11.18,63.27,6.59,19.91,22.3,35.2,43.47,42.54l.05.06v35.44c0,3.43,2.78,6.21,6.21,6.21h0c3.43,0,6.21-2.78,6.21-6.21v-40.05c0-2.78-1.84-5.22-4.52-5.98-19.74-5.57-33.81-18.33-39.63-35.92-5.77-17.46-2.33-36.81,9.22-51.78,11.34-14.7,31.34-22.42,50.98-19.68,1.17.17,2.32.36,3.45.6l.05.08c-5.89,15.39-4.59,31.96,3.92,47.57,8.46,15.54,21.58,18.12,30.82,13.78,10.88-5.11,18-20.08,10.53-38.83-5.14-12.95-14.86-23.22-27.35-29.46l-.02-.08c10.84-14.73,30.03-24.37,49.29-24.37s38.44,9.64,49.29,24.37l-.02.08c-12.49,6.24-22.19,16.51-27.35,29.46-7.47,18.75-.35,33.72,10.53,38.83,9.24,4.34,22.36,1.76,30.82-13.78,8.51-15.6,9.81-32.18,3.92-47.57l.05-.08c1.13-.24,2.28-.43,3.45-.6,19.63-2.75,39.64,4.98,50.98,19.68,11.54,14.98,14.99,34.33,9.22,51.78-5.82,17.59-19.89,30.35-39.63,35.92-2.67.76-4.52,3.19-4.52,5.98v40.05c0,3.43,2.78,6.21,6.21,6.21h0c3.43,0,6.21-2.78,6.21-6.21Z"/>
  </g>
  <text class="cls-6" transform="translate(214.4 680.68)"><tspan class="cls-7" x="0" y="0">H</tspan><tspan x="59.68" y="0">om</tspan><tspan class="cls-3" x="183.98" y="0">e</tspan><tspan class="cls-7" x="232.02" y="0">M</tspan><tspan class="cls-4" x="301.41" y="0">ea</tspan><tspan class="cls-1" x="396.28" y="0">l</tspan></text>
  <text/>
  <text/>
</svg>