<?xml version="1.0" encoding="utf-8"?>
<!-- Generator: Adobe Illustrator 23.1.0, SVG Export Plug-In . SVG Version: 6.00 Build 0)  -->
<svg version="1.1" id="Layer_1" xmlns="http://www.w3.org/2000/svg" xmlns:xlink="http://www.w3.org/1999/xlink" x="0px" y="0px"
	 viewBox="0 0 1920 1080" style="enable-background:new 0 0 1920 1080;" xml:space="preserve">
<style type="text/css">
	.st0{fill:#FFC300;}
	.st1{fill:#FCFCFC;}
	.st2{display:none;fill:#FFC300;}
</style>
<g>
	<circle class="st0" cx="960.34" cy="539.72" r="207.84"/>
	<g>
		<path class="st1" d="M926.89,509.28c4.57,11.48,1.2,20.41-4.28,22.99c-4.93,2.31-10.53-0.94-14.64-8.48
			c-6.76-12.41-7.76-25.55-3-37.71c0.01-0.02,0.05-0.05,0.08-0.04C915.11,490.87,922.76,498.89,926.89,509.28z M1012.7,523.78
			c-4.11,7.54-9.72,10.8-14.64,8.48c-5.48-2.58-8.84-11.51-4.28-22.99c4.13-10.39,11.78-18.41,21.83-23.24
			c0.04-0.01,0.07,0.01,0.08,0.04C1020.47,498.23,1019.47,511.37,1012.7,523.78z M1059.49,634.87v-35.44
			c0.02-0.02,0.03-0.04,0.05-0.06c21.18-7.34,36.88-22.63,43.47-42.54c7.07-21.39,2.89-45.02-11.18-63.27
			c-14.23-18.46-38.19-27.8-62.53-24.4c-2.59,0.37-5.13,0.88-7.59,1.52c-0.02-0.01-0.04-0.01-0.06-0.02
			c-12.84-19.71-36.6-32.31-61.3-32.31s-48.46,12.6-61.3,32.31c-0.02,0.01-0.04,0.01-0.06,0.02c-2.46-0.64-5-1.14-7.59-1.52
			c-24.35-3.41-48.3,5.94-62.53,24.4c-14.07,18.23-18.25,41.88-11.18,63.27c6.59,19.91,22.3,35.2,43.47,42.54
			c0.02,0.02,0.03,0.04,0.05,0.06v35.44c0,3.43,2.78,6.21,6.21,6.21l0,0c3.43,0,6.21-2.78,6.21-6.21v-40.05
			c0-2.78-1.84-5.22-4.52-5.98c-19.74-5.57-33.81-18.33-39.63-35.92c-5.77-17.46-2.33-36.81,9.22-51.78
			c11.34-14.7,31.34-22.42,50.98-19.68c1.17,0.17,2.32,0.36,3.45,0.6c0.02,0.03,0.03,0.05,0.05,0.08
			c-5.89,15.39-4.59,31.96,3.92,47.57c8.46,15.54,21.58,18.12,30.82,13.78c10.88-5.11,18-20.08,10.53-38.83
			c-5.14-12.95-14.86-23.22-27.35-29.46c-0.01-0.04-0.01-0.05-0.02-0.08c10.84-14.73,30.03-24.37,49.29-24.37
			s38.44,9.64,49.29,24.37c-0.01,0.04-0.01,0.05-0.02,0.08c-12.49,6.24-22.19,16.51-27.35,29.46c-7.47,18.75-0.35,33.72,10.53,38.83
			c9.24,4.34,22.36,1.76,30.82-13.78c8.51-15.6,9.81-32.18,3.92-47.57c0.02-0.03,0.03-0.05,0.05-0.08c1.13-0.24,2.28-0.43,3.45-0.6
			c19.63-2.75,39.64,4.98,50.98,19.68c11.54,14.98,14.99,34.33,9.22,51.78c-5.82,17.59-19.89,30.35-39.63,35.92
			c-2.67,0.76-4.52,3.19-4.52,5.98v40.05c0,3.43,2.78,6.21,6.21,6.21l0,0C1056.71,641.09,1059.49,638.3,1059.49,634.87z"/>
		<path class="st2" d="M960.38,576.34c-0.02,0.02-0.06,0.02-0.08,0c-4.74-4.71-12.39-4.7-17.12,0.04c-4.73,4.73-4.73,12.41,0,17.16
			l17.12,17.12c0.02,0.02,0.06,0.02,0.09,0l17.12-17.12c4.75-4.75,4.75-12.43,0-17.16C972.78,571.65,965.13,571.63,960.38,576.34z"
			/>
	</g>
</g>
</svg>
